<svg xmlns="http://www.w3.org/2000/svg" width="138.659" height="30" viewBox="0 0 138.659 30">
  <g id="logo-mh-white" transform="translate(-229.22 -359.764)">
    <g id="Module" style="isolation: isolate">
      <g id="Group_48" data-name="Group 48" style="isolation: isolate">
        <path id="Path_21" data-name="Path 21" d="M262.9,366.545l2.314,7.11,2.5-7.11h2.246v14.219H268.2V375.09l.146-5.937-2.627,7.656h-1.035l-2.412-7.451.146,5.732v5.674h-1.757V366.545Z" fill="#fff"/>
        <path id="Path_22" data-name="Path 22" d="M272.414,375.383a6.576,6.576,0,0,1,.332-2.124,5.077,5.077,0,0,1,.952-1.7,4.441,4.441,0,0,1,1.509-1.138,4.681,4.681,0,0,1,2-.415,4.744,4.744,0,0,1,2.017.415,4.44,4.44,0,0,1,1.514,1.138,5.1,5.1,0,0,1,.952,1.7,6.6,6.6,0,0,1,.332,2.124v.215a6.551,6.551,0,0,1-.332,2.119,5.1,5.1,0,0,1-.952,1.7,4.393,4.393,0,0,1-1.509,1.132,4.714,4.714,0,0,1-2,.41,4.774,4.774,0,0,1-2.017-.41,4.37,4.37,0,0,1-1.513-1.132,5.078,5.078,0,0,1-.952-1.7,6.523,6.523,0,0,1-.332-2.119Zm1.806.215a5.831,5.831,0,0,0,.186,1.489,3.865,3.865,0,0,0,.561,1.246,2.769,2.769,0,0,0,.943.849,2.687,2.687,0,0,0,1.318.313,2.643,2.643,0,0,0,1.3-.313,2.778,2.778,0,0,0,.937-.849,3.866,3.866,0,0,0,.562-1.246,5.876,5.876,0,0,0,.185-1.489v-.215a5.662,5.662,0,0,0-.19-1.479,3.924,3.924,0,0,0-.567-1.245,2.827,2.827,0,0,0-.937-.855,2.622,2.622,0,0,0-1.314-.317,2.592,2.592,0,0,0-1.308.317,2.853,2.853,0,0,0-.933.855,3.85,3.85,0,0,0-.561,1.245,5.792,5.792,0,0,0-.186,1.479Z" fill="#fff"/>
        <path id="Path_23" data-name="Path 23" d="M284.582,375.393a7.546,7.546,0,0,1,.3-2.173,5.207,5.207,0,0,1,.85-1.7,3.936,3.936,0,0,1,1.333-1.113,3.777,3.777,0,0,1,1.748-.4,4.009,4.009,0,0,1,1.655.318,3.459,3.459,0,0,1,1.226.923v-5.479H293.5v15h-1.661l-.078-1.113a3.442,3.442,0,0,1-1.259.976,4.1,4.1,0,0,1-1.709.332,3.647,3.647,0,0,1-1.734-.41,3.982,3.982,0,0,1-1.323-1.132,5.459,5.459,0,0,1-.85-1.7,7.164,7.164,0,0,1-.3-2.114Zm1.806.2a6.252,6.252,0,0,0,.166,1.465,3.841,3.841,0,0,0,.513,1.221,2.585,2.585,0,0,0,.884.835,2.551,2.551,0,0,0,1.289.307,3.008,3.008,0,0,0,.83-.107,2.423,2.423,0,0,0,.674-.308,2.545,2.545,0,0,0,.537-.478,3.349,3.349,0,0,0,.41-.62v-4.9a3.052,3.052,0,0,0-.947-1.059,2.533,2.533,0,0,0-1.485-.415,2.473,2.473,0,0,0-2.192,1.157,3.883,3.883,0,0,0-.513,1.23,6.32,6.32,0,0,0-.166,1.47Z" fill="#fff"/>
        <path id="Path_24" data-name="Path 24" d="M303.781,379.309a3.765,3.765,0,0,1-1.319,1.216,3.727,3.727,0,0,1-1.826.434,4.16,4.16,0,0,1-1.5-.258,2.9,2.9,0,0,1-1.152-.806,3.732,3.732,0,0,1-.737-1.392,6.948,6.948,0,0,1-.259-2.026V370.2h1.807v6.3a6.221,6.221,0,0,0,.136,1.425,2.277,2.277,0,0,0,.41.9,1.475,1.475,0,0,0,.669.473,2.8,2.8,0,0,0,.913.137,3.177,3.177,0,0,0,1.783-.449,2.727,2.727,0,0,0,1.01-1.211V370.2h1.817v10.566h-1.641Z" fill="#fff"/>
        <path id="Path_25" data-name="Path 25" d="M309.211,365.764h5.4V379.2h3.448v1.562h-8.848V379.2H312.8V367.336h-3.594Z" fill="#fff"/>
        <path id="Path_26" data-name="Path 26" d="M325.6,380.959a5.354,5.354,0,0,1-2.046-.38,4.634,4.634,0,0,1-1.6-1.065,4.86,4.86,0,0,1-1.035-1.621,5.486,5.486,0,0,1-.371-2.041v-.41a6.054,6.054,0,0,1,.41-2.29,5.238,5.238,0,0,1,1.089-1.709,4.733,4.733,0,0,1,1.543-1.069,4.441,4.441,0,0,1,1.772-.372,4.707,4.707,0,0,1,2,.4,3.919,3.919,0,0,1,1.421,1.094,4.683,4.683,0,0,1,.845,1.645,7.238,7.238,0,0,1,.278,2.051V376h-7.549a4.163,4.163,0,0,0,.279,1.357,3.511,3.511,0,0,0,.683,1.108,3.14,3.14,0,0,0,1.04.747,3.2,3.2,0,0,0,1.338.274,3.669,3.669,0,0,0,1.719-.391,3.733,3.733,0,0,0,1.25-1.035l1.1.859a4.188,4.188,0,0,1-.66.767,4.506,4.506,0,0,1-.913.649,5.182,5.182,0,0,1-1.172.455A5.629,5.629,0,0,1,325.6,380.959Zm-.235-9.472a2.675,2.675,0,0,0-1.914.786,3.329,3.329,0,0,0-.659.947,4.451,4.451,0,0,0-.376,1.294H328.1v-.137a4.042,4.042,0,0,0-.2-1.044,2.935,2.935,0,0,0-.5-.928,2.516,2.516,0,0,0-.835-.664A2.635,2.635,0,0,0,325.363,371.487Z" fill="#fff"/>
      </g>
    </g>
    <g id="Hub" style="isolation: isolate">
      <g id="Group_49" data-name="Group 49" style="isolation: isolate">
        <path id="Path_27" data-name="Path 27" d="M343.836,380.764h-1.709v-6.572H336.3v6.572h-1.7V366.545h1.7v6.114h5.83v-6.114h1.709Z" fill="#fff"/>
        <path id="Path_28" data-name="Path 28" d="M353.777,379.309a3.625,3.625,0,0,1-3.144,1.65,4.153,4.153,0,0,1-1.5-.258,2.888,2.888,0,0,1-1.152-.806,3.719,3.719,0,0,1-.738-1.392,6.948,6.948,0,0,1-.259-2.026V370.2h1.807v6.3a6.159,6.159,0,0,0,.137,1.425,2.249,2.249,0,0,0,.41.9,1.464,1.464,0,0,0,.669.473,2.792,2.792,0,0,0,.913.137,3.176,3.176,0,0,0,1.782-.449,2.735,2.735,0,0,0,1.011-1.211V370.2h1.816v10.566h-1.64Z" fill="#fff"/>
        <path id="Path_29" data-name="Path 29" d="M367.879,375.6a7.861,7.861,0,0,1-.274,2.114,5.257,5.257,0,0,1-.8,1.7,3.674,3.674,0,0,1-3.086,1.542,4.006,4.006,0,0,1-1.763-.361,3.581,3.581,0,0,1-1.274-1.035l-.088,1.2h-1.66v-15h1.806v5.567a3.468,3.468,0,0,1,1.25-.987A4.019,4.019,0,0,1,363.7,370a3.886,3.886,0,0,1,1.8.4,3.712,3.712,0,0,1,1.309,1.113,5.136,5.136,0,0,1,.8,1.7,8.167,8.167,0,0,1,.274,2.173Zm-1.807-.2a6.983,6.983,0,0,0-.151-1.47,3.872,3.872,0,0,0-.484-1.23,2.476,2.476,0,0,0-.869-.845,2.584,2.584,0,0,0-1.318-.312,2.871,2.871,0,0,0-.859.122,2.422,2.422,0,0,0-.7.342,2.729,2.729,0,0,0-.546.517,3.17,3.17,0,0,0-.406.65v4.619a3.567,3.567,0,0,0,.415.649,2.8,2.8,0,0,0,.552.523,2.439,2.439,0,0,0,.7.346,2.882,2.882,0,0,0,.86.122,2.406,2.406,0,0,0,2.143-1.142,3.868,3.868,0,0,0,.5-1.221,6.417,6.417,0,0,0,.161-1.465Z" fill="#fff"/>
      </g>
    </g>
    <g id="Group_46" data-name="Group 46">
      <circle id="Ellipse_1" data-name="Ellipse 1" cx="15" cy="15" r="15" transform="translate(229.22 359.764)" fill="none"/>
      <g id="device_hub" data-name="device hub">
        <path id="Path_18" data-name="Path 18" d="M231.42,360.7h25.662v25.662H231.42Z" fill="none"/>
        <path id="Path_19" data-name="Path 19" d="M231.42,360.7h25.662v25.662H231.42Z" fill="none"/>
        <path id="Path_20" data-name="Path 20" d="M249.6,377.813l-4.277-4.277v-3.4a3.207,3.207,0,1,0-2.138,0v3.4l-4.277,4.277h-4.277v5.346h5.346V379.9l4.277-4.491,4.277,4.491v3.261h5.346v-5.346Z" fill="#fff"/>
      </g>
    </g>
  </g>
</svg>
